<?xml version="1.0" encoding="utf-8"?>
<!-- Generator: Adobe Illustrator 16.0.3, SVG Export Plug-In . SVG Version: 6.00 Build 0)  -->
<!DOCTYPE svg PUBLIC "-//W3C//DTD SVG 1.1//EN" "http://www.w3.org/Graphics/SVG/1.1/DTD/svg11.dtd">
<svg version="1.1" id="Layer_1" xmlns="http://www.w3.org/2000/svg" xmlns:xlink="http://www.w3.org/1999/xlink" x="0px" y="0px"
	 width="720px" height="165px" viewBox="0 34.5 720 165" enable-background="new 0 34.5 720 165" xml:space="preserve">
<path fill="#5AABDF" d="M-433.491,928.477c0,7.836-5.371,14.189-12,14.189h-342.667c-6.627,0-12-6.354-12-14.189V866.76
	c0-7.838,5.373-14.188,12-14.188h342.667c6.629,0,12,6.352,12,14.188V928.477L-433.491,928.477z"/>
<path fill="#9ADBF9" d="M-135.079,297.334c0,6.627-5.372,12-12,12h-342.667c-6.627,0-12-5.373-12-12v-52.189c0-6.629,5.373-12,12-12
	h342.667c6.628,0,12,5.371,12,12V297.334L-135.079,297.334z"/>
<text transform="matrix(1 0 0 1 -447.6821 277.5713)" font-family="'PrestigeEliteStd-Bd'" font-size="24">search the NYTimes</text>
<g>
	<text transform="matrix(1 0 0 1 15.2119 108.1113)" fill="#FFFFFF" font-family="'Georgia'" font-size="48">Get with</text>
	<text transform="matrix(1 0 0 1 147.166 193.6533)" fill="#FFFFFF" font-family="'Georgia-Bold'" font-size="24">The front page of the New York Times</text>
	<g>
		<path id="path6" fill="#FFFFFF" d="M284.226,43.809c-0.871,0.042-1.718,0.266-2.533,0.785c3.359,0.672,7.301,1.124,9.417,4.188
			c1.063,1.129,0.733,2.862-0.329,3.854c-2.011,2.396-5.462,3.148-8.412,2.382c-10.011-2.36-19.476-6.957-29.76-8.149
			c-5.508-0.729-10.892,1.923-14.689,5.756c-3.508,3.52-4.783,8.862-4.09,13.687c0.774,3.818,3.604,7.783,7.695,8.348
			c-2.424-2.636-2.883-7.205-0.371-9.942c1.423-1.762,3.945-2.005,6.047-1.68c7.97,1.479,15.734,3.881,23.685,5.495
			c4.45,1.211,8.848,2.654,13.396,3.48c0.082,5.438,0.082,10.868,0,16.307c-2.936,2.189-5.737,4.552-8.618,6.813
			c2.803,2.101,5.692,4.064,8.593,6.031c0.187,7.688-0.028,15.376,0.107,23.062c-4.739,3.664-11.096,4.261-16.866,3.581
			c-6.132-0.342-11.572-3.992-15.587-8.428c6.729-3.591,13.59-6.979,20.475-10.271c0.244-12.123,0.045-24.251,0.111-36.383
			c-8.604,3.607-17.119,7.408-25.695,11.071c2.479-6.34,7.521-11.477,13.535-14.526c-1.569,0.095-3.216-0.021-4.684,0.659
			c-11.258,4.445-20.534,14-24.026,25.654c-2.335,7.403-1.583,15.497,0.95,22.734c3.14,8.052,8.945,15.18,16.646,19.25
			c4.324,2.233,8.979,4.332,13.938,4.393c10.262,0.854,21.058-3.018,27.979-10.74c3.023-3.244,4.546-7.474,6.045-11.564
			c1.388-4.032,2.019-8.322,1.873-12.585c-3.323,6.587-7.74,12.772-13.771,17.143c0.039-7.662-0.017-15.319,0.014-22.979
			c2.622-2,5.255-3.996,7.793-6.103c-2.604-2.308-5.193-4.612-7.793-6.926c0.011-5.388-0.011-10.786,0-16.166
			c5.866-0.311,12.616-3.404,14.197-9.559c1.101-4.017,1.676-8.771-0.785-12.405c-2.267-2.578-5.2-4.817-8.648-5.439
			C288.155,44.468,286.143,43.717,284.226,43.809z M256.782,80.753c-0.022,11.677,0.066,23.354-0.042,35.031
			c-1.95,0.765-3.866,1.603-5.783,2.45c-3.537-5.116-5.734-11.142-6.748-17.253c-0.275-5.162,0.683-10.391,2.479-15.23
			C250.082,84.138,253.399,82.395,256.782,80.753z"/>
		<path id="path8" fill="#FFFFFF" d="M473.897,42.224c-0.94-0.026-1.869,0.156-2.737,0.785c1.981,0.457,4.08,0.652,5.936,1.583
			c1.652,0.793,2.746,2.438,3.318,4.131c0.309,1.834-1.035,3.525-2.646,4.214c-2.887,1.333-6.16,0.719-9.102-0.083
			c-7.051-2.156-13.916-4.949-21.109-6.637c-3.697-0.788-7.569-1.531-11.305-0.551c-4.049,1.14-8.158,3.079-10.547,6.692
			c-3.086,3.979-3.476,9.46-1.974,14.141c1.24,3.124,3.752,6.194,7.302,6.596c-1.156-1.484-3.148-2.988-2.574-5.105
			c0.315-2.104,1.188-4.239,2.877-5.604c1.686-1.271,3.992-1.256,5.949-0.688c7.172,1.333,14.17,3.347,21.26,5.023
			c4.805,1.021,9.416,2.812,14.252,3.704c0.084,5.415,0.021,10.829,0.041,16.249c-2.598,2.297-5.199,4.591-7.766,6.927
			c2.59,1.999,5.131,4.05,7.752,6.003c0.039,7.707-0.015,15.426,0.041,23.137c-4.552,3.407-10.537,4.25-16.058,3.48
			c-6.098-0.364-11.43-4.032-15.477-8.372c1.658-1.158,3.551-1.898,5.342-2.837c5.033-2.479,10.004-5.073,15.078-7.464
			c0.16-12.134,0.02-24.272,0.068-36.408c-8.552,3.644-17.031,7.453-25.613,11.019c1.963-4.654,5.098-8.912,9.311-11.761
			c1.265-1.149,2.539-2.356,4.271-2.755c-1.729,0.121-3.521,0.063-5.095,0.868c-12.094,4.893-22.401,15.562-24.678,28.669
			c-0.863,6.653-0.246,13.564,2.078,19.87c2.98,7.403,8.229,13.979,15.051,18.177c3.269,1.988,6.775,3.589,10.438,4.695
			c8.77,1.459,18.174,0.198,25.846-4.461c5.062-3.531,9.765-8.108,11.886-14.046c2.274-5.04,3.188-10.544,3.307-16.042
			c-1.062,1.382-1.68,3.024-2.574,4.502c-2.914,4.891-6.686,9.323-11.279,12.71c0.06-7.685-0.065-15.368,0.068-23.052
			c2.602-1.878,5.041-3.975,7.658-5.839c-2.412-2.5-5.15-4.66-7.711-6.995c-0.05-5.389,0.059-10.779-0.058-16.165
			c5.039-0.325,10.14-2.586,12.849-7.01c2.82-4.546,2.805-10.734,0.082-15.312c-2.144-2.832-5.513-4.655-8.99-5.178
			C477.101,42.909,475.474,42.271,473.897,42.224L473.897,42.224z M446.233,79.155c0.066,11.652,0,23.307,0.027,34.962
			c-1.988,0.832-3.951,1.71-5.934,2.547c-2.877-4.042-5.113-8.59-6.269-13.425c-1.271-6.334-0.938-13.2,2.011-19.044
			C439.487,82.563,442.853,80.856,446.233,79.155L446.233,79.155z"/>
		<path id="path14" fill="#FFFFFF" d="M306.19,61.467c5.691-4.241,11.271-8.637,16.965-12.861
			c0.028,14.001-0.006,28.011,0.02,42.018c4.82-3.979,9.678-7.904,14.447-11.938c3.828,3.974,7.399,8.19,11.346,12.035
			c1.664-1.195,3.373-2.33,5.118-3.396c-0.313,2.22-2.97,2.979-4.349,4.524c0.02,7.657,0,15.31,0.008,22.963
			c0.108,5.726-0.717,11.408-0.89,17.124c-0.258,6.203-2.666,12.544-7.5,16.613c-3.934,3.515-9.311,4.78-14.438,5.205
			c-0.089,0.121-0.276,0.369-0.369,0.495l0.139-0.451c-1.769,0-3.529-0.064-5.294-0.198c2.213-1.146,4.723-1.879,6.467-3.771
			c2.007-2.237,4.343-4.368,5.326-7.294c1.612-4.461,1.663-9.271,1.822-13.951c-0.045-10.493,0.051-20.991-0.05-31.479
			c-2.335-3.046-5.133-5.731-7.611-8.676c-1.354,1.449-2.979,2.666-4.142,4.274c-0.094,10.829-0.012,21.664-0.039,32.491
			c1.404,1.397,2.803,2.81,4.219,4.194c1.135-1.14,2.271-2.282,3.405-3.432c0.253,0.248,0.754,0.744,1.007,0.992
			c-5.509,4.308-10.959,8.681-16.468,12.979c-3.487-3.096-6.894-6.276-10.323-9.436c-1.15,0.855-2.301,1.729-3.458,2.583
			c-0.248-0.259-0.731-0.776-0.981-1.035c2.646-1.702,5.238-3.479,7.854-5.216c-0.005-19.256-0.005-38.507,0-57.764
			c-0.054-1.472,0.017-3.058-0.759-4.366c-0.516-1.003-1.67-1.322-2.535-1.931C304.936,62.134,305.85,61.864,306.19,61.467
			L306.19,61.467z"/>
		<path id="path18" fill="#FFFFFF" d="M491.708,64.322c3.565-3.129,6.93-6.488,10.576-9.529c3.082,3.255,6.334,6.351,9.467,9.557
			c-3.762,3.521-7.545,7.015-11.357,10.479C497.515,71.306,494.55,67.869,491.708,64.322L491.708,64.322z"/>
		<path id="path24" fill="#FFFFFF" d="M692.772,74.583c0.396,1.014,0.523,2.146,0.027,3.154c-1.217,2.779-4.533,3.85-7.354,3.8
			c-2.951-0.267-5.257-2.388-7.242-4.395c-3.338,2.236-6.691,4.456-10.025,6.692c-3.844,2.589-8.088,4.5-12.352,6.279
			c-0.019,5.476,0.004,10.938-0.017,16.414c3.111,2.595,6.312,5.071,9.363,7.737c-2.34,2.479-4.648,4.993-6.857,7.586
			c-2.27,2.732-4.409,5.892-4.545,9.56c-0.131,4.169,1.654,8.683,5.347,10.893c1.631,0.958,3.61,1.812,5.51,1.074
			c-2.359-0.844-5.26-2.551-5.059-5.426c0.655-2.725,3.889-4.542,6.567-3.762c2.783,0.795,5.08,2.78,6.859,5.014
			c7.146-5.149,14.68-9.752,22.498-13.812c-0.062-6.942,0.1-13.906-0.066-20.848c-3.455-2.424-6.748-5.065-10.162-7.533
			c3.611-4.577,7.248-9.418,8.758-15.146C694.587,79.45,694.776,76.4,692.772,74.583L692.772,74.583z M669.747,84.994
			c2.317,3.332,5.391,6.573,9.6,7.256c4.191,0.986,8.254-1.286,11.002-4.31c-3.762,6.954-9.598,12.541-15.629,17.543
			c-1.631-1.73-3.385-3.344-4.998-5.082C669.788,95.268,669.731,90.127,669.747,84.994L669.747,84.994z M675.655,105.758
			c1.807,1.521,3.592,3.068,5.396,4.599c0.826,0.496,0.42,1.532,0.537,2.314c-0.049,5.965,0.074,11.95-0.068,17.915
			c-1.35-3.052-3.373-5.891-6.225-7.698c-4.135-2.703-9.824-2.857-14.031-0.23c-1.93,1.065-3.471,2.663-4.93,4.279
			c2.088-4.072,5.461-7.292,8.633-10.521C668.597,112.924,672.22,109.437,675.655,105.758z"/>
		<path id="path26" fill="#FFFFFF" d="M387.542,78.716c-4.76,2.754-9.357,5.759-14.021,8.662c-3.946,2.06-7.961,4.003-11.938,6.003
			c0.017,11.154-0.02,22.308,0.023,33.46c-1.692,1.318-3.675,2.266-5.219,3.774c0.299,0.176,0.89,0.53,1.188,0.716
			c1.333-1.151,2.649-2.325,4.115-3.305c4.932,4.097,9.58,8.531,14.5,12.651c0.241-0.126,0.729-0.383,0.979-0.51
			c8.328-6.455,16.742-12.814,25.076-19.264l-1.033-0.91c-4.639,3.614-9.148,7.417-13.742,11.084
			c-3.795-3.414-7.467-6.964-11.25-10.396c-1.289-0.938-0.566-2.729-0.662-4.062c7.771-5.689,15.547-11.382,23.203-17.229
			C394.942,92.546,391.243,85.634,387.542,78.716z M375.534,86.936c3.934,6.461,7.887,12.9,11.771,19.392
			c-3.953,2.779-7.875,5.596-11.787,8.427C375.481,105.481,375.462,96.206,375.534,86.936L375.534,86.936z"/>
		<path id="path34" fill="#FFFFFF" d="M637.019,77.13c-3.504,2.131-7.021,4.26-10.479,6.458c-4.785,3.327-10.275,5.397-15.354,8.207
			c0.056,11.148,0,22.304,0.025,33.448c-1.752,1.156-3.482,2.335-5.232,3.47c0.229,0.275,0.687,0.841,0.908,1.116
			c1.51-1.118,2.873-2.446,4.504-3.416c4.543,4.225,9.297,8.222,13.908,12.379c0.439,0.706,1.08-0.016,1.527-0.302
			c8.307-6.401,16.635-12.766,24.95-19.144c-0.977-1.707-2.081-0.053-3.059,0.647c-3.906,3.179-7.801,6.354-11.717,9.515
			c-4.006-3.648-7.873-7.438-11.953-11.002c-0.061-1.146-0.07-2.297-0.014-3.439c7.793-5.646,15.496-11.427,23.229-17.158
			C644.544,90.964,640.808,84.032,637.019,77.13L637.019,77.13z M624.995,85.544c4.215,6.229,7.916,12.811,11.871,19.223
			c-4.013,2.749-7.91,5.657-11.896,8.43C625.034,103.979,624.974,94.759,624.995,85.544L624.995,85.544z"/>
		<path id="path38" fill="#FFFFFF" d="M519.97,90.375c4.688-4.104,9.275-8.312,13.99-12.382c3.381,3.729,6.879,7.354,10.201,11.137
			c4.979-3.596,9.76-7.463,14.688-11.137c3.451,3.702,6.842,7.464,10.328,11.137c4.885-3.701,9.709-7.479,14.629-11.131
			c3.359,3.745,6.824,7.396,10.225,11.109c2.081-1.327,3.992-2.922,6.111-4.191c0.16,1.232-0.963,1.795-1.746,2.478
			c-1.133,0.915-2.233,1.873-3.37,2.782c-0.095,10.256,0.022,20.512-0.06,30.771c1.955,2.024,3.947,4.021,5.98,5.971
			c1.071-1.118,2.176-2.214,3.221-3.36c0.313,0.198,0.949,0.592,1.264,0.788c-5.141,5.062-10.438,9.972-15.715,14.891
			c-3.719-4.393-7.617-8.64-11.246-13.104c0.879-0.81,1.738-1.651,2.588-2.5c0.011-8.846,0-17.691,0-26.533
			c-2.811-3.134-5.604-6.276-8.504-9.33c-0.838,0.854-1.676,1.702-2.502,2.562c-0.01,11.06,0.045,22.121-0.027,33.181
			c1.396,1.563,2.966,2.962,4.381,4.521c-3.809,3.378-7.477,6.913-11.262,10.32c-3.534-3.719-7.018-7.488-10.436-11.308
			c0.975-1.201,2.93-2.071,2.621-3.9c-0.045-8.625,0.043-17.257-0.045-25.877c-2.357-3.28-5-6.461-7.732-9.457
			c-0.799,0.851-1.605,1.683-2.424,2.515c0.021,10.713-0.062,21.433,0.039,32.145c1.156,1.975,2.881,3.585,4.315,5.365
			c-3.692,3.884-7.514,7.656-11.36,11.385c-3.683-4.384-7.492-8.649-11.197-13.01c1.156-0.897,2.324-1.784,3.486-2.683
			c-0.033-9.052-0.066-18.105,0.016-27.154c-2.168-2.688-4.549-5.2-6.828-7.793c-1.621,1.2-3.047,2.709-4.896,3.558
			C518.614,91.289,519.446,90.887,519.97,90.375z"/>
		<path id="path40" fill="#FFFFFF" d="M487.368,91.085c4.848-4.439,9.862-8.708,14.76-13.098c3.488,3.966,6.877,8.02,10.346,12.002
			c1.803-1.41,3.416-3.084,5.408-4.247c-0.148,0.633-0.318,1.29-0.908,1.646c-1.494,1.239-2.975,2.484-4.479,3.69
			c0.021,10.271-0.045,20.54,0.033,30.812c1.961,2.214,3.985,4.384,5.813,6.722c1.525-0.933,2.799-2.202,4.254-3.237
			c0.31,0.165,0.933,0.489,1.238,0.646c-4.842,4.539-9.865,8.893-14.91,13.191c-3.354-4.032-6.799-7.997-10.229-11.969
			c-1.494,1.354-2.736,2.997-4.373,4.175c-0.232-0.214-0.695-0.655-0.929-0.876c1.453-1.376,2.824-2.842,4.306-4.207
			c0.112-9.332,0.004-18.673,0.053-28.003c-0.088-1.3,0.33-2.836-0.683-3.873c-1.799-2.23-3.446-4.577-5.358-6.708
			C490.294,88.904,488.942,90.154,487.368,91.085L487.368,91.085z"/>
	</g>
</g>
</svg>
