<?xml version="1.0" encoding="utf-8"?>
<!-- Generator: Adobe Illustrator 16.0.3, SVG Export Plug-In . SVG Version: 6.00 Build 0)  -->
<!DOCTYPE svg PUBLIC "-//W3C//DTD SVG 1.1//EN" "http://www.w3.org/Graphics/SVG/1.1/DTD/svg11.dtd">
<svg version="1.1" id="Layer_1" xmlns="http://www.w3.org/2000/svg" xmlns:xlink="http://www.w3.org/1999/xlink" x="0px" y="0px"
	 width="756.076px" height="141.014px" viewBox="238.293 515.311 756.076 141.014"
	 enable-background="new 238.293 515.311 756.076 141.014" xml:space="preserve">
<path fill="#5AABDF" d="M-433.491,928.477c0,7.836-5.371,14.189-12,14.189h-342.667c-6.627,0-12-6.354-12-14.189V866.76
	c0-7.838,5.373-14.188,12-14.188h342.667c6.629,0,12,6.352,12,14.188V928.477L-433.491,928.477z"/>
<path fill="#9ADBF9" d="M-135.079,297.334c0,6.627-5.372,12-12,12h-342.667c-6.627,0-12-5.373-12-12v-52.189c0-6.629,5.373-12,12-12
	h342.667c6.628,0,12,5.371,12,12V297.334L-135.079,297.334z"/>
<text transform="matrix(1 0 0 1 -447.6821 277.5713)" font-family="'PrestigeEliteStd-Bd'" font-size="24">search the NYTimes</text>
<text transform="matrix(1 0 0 1 263.7803 594.6738)" fill="#FFFFFF" font-family="'Georgia'" font-size="48">Get with</text>
<text transform="matrix(1 0 0 1 395.7344 1109.2588)" fill="#FFFFFF" font-family="'Georgia-Bold'" font-size="24">The front page of the New York Times</text>
<g>
	<path id="path6" fill="#FFFFFF" d="M532.794,530.372c-0.871,0.042-1.718,0.266-2.533,0.785c3.359,0.672,7.302,1.124,9.418,4.188
		c1.062,1.129,0.732,2.862-0.329,3.854c-2.011,2.396-5.462,3.148-8.412,2.382c-10.011-2.36-19.476-6.957-29.761-8.149
		c-5.508-0.729-10.892,1.923-14.688,5.756c-3.508,3.52-4.783,8.862-4.09,13.687c0.774,3.818,3.604,7.783,7.694,8.348
		c-2.424-2.636-2.883-7.205-0.37-9.942c1.423-1.762,3.944-2.005,6.047-1.68c7.97,1.479,15.733,3.881,23.685,5.495
		c4.45,1.211,8.848,2.654,13.396,3.48c0.082,5.438,0.082,10.868,0,16.307c-2.936,2.188-5.737,4.552-8.618,6.812
		c2.803,2.102,5.692,4.064,8.593,6.031c0.188,7.688-0.027,15.376,0.107,23.062c-4.739,3.664-11.096,4.26-16.866,3.58
		c-6.132-0.342-11.572-3.992-15.587-8.428c6.729-3.591,13.59-6.979,20.475-10.271c0.244-12.123,0.045-24.25,0.111-36.382
		c-8.604,3.607-17.119,7.408-25.695,11.071c2.479-6.34,7.521-11.477,13.535-14.526c-1.568,0.095-3.216-0.021-4.684,0.659
		c-11.258,4.445-20.534,14-24.026,25.654c-2.335,7.403-1.583,15.497,0.95,22.732c3.14,8.054,8.945,15.182,16.646,19.25
		c4.323,2.233,8.979,4.332,13.938,4.395c10.262,0.854,21.058-3.02,27.979-10.74c3.023-3.242,4.547-7.474,6.045-11.562
		c1.389-4.032,2.02-8.322,1.873-12.586c-3.322,6.588-7.74,12.772-13.771,17.144c0.039-7.662-0.017-15.319,0.014-22.979
		c2.622-2,5.255-3.995,7.793-6.103c-2.604-2.308-5.192-4.612-7.793-6.926c0.011-5.388-0.011-10.786,0-16.166
		c5.866-0.311,12.616-3.404,14.197-9.559c1.101-4.017,1.676-8.771-0.785-12.405c-2.267-2.578-5.2-4.817-8.647-5.439
		C536.724,531.03,534.712,530.279,532.794,530.372z M505.351,567.315c-0.022,11.677,0.066,23.354-0.042,35.031
		c-1.95,0.765-3.866,1.603-5.783,2.45c-3.537-5.116-5.733-11.144-6.748-17.254c-0.274-5.162,0.683-10.391,2.479-15.229
		C498.65,570.702,501.968,568.958,505.351,567.315z"/>
	<path id="path8" fill="#FFFFFF" d="M722.465,528.787c-0.939-0.026-1.868,0.156-2.736,0.785c1.979,0.457,4.08,0.652,5.936,1.583
		c1.652,0.793,2.746,2.438,3.318,4.131c0.309,1.834-1.035,3.525-2.646,4.214c-2.887,1.333-6.158,0.719-9.102-0.083
		c-7.051-2.156-13.916-4.949-21.109-6.637c-3.695-0.788-7.567-1.531-11.305-0.551c-4.049,1.14-8.158,3.079-10.547,6.692
		c-3.086,3.979-3.477,9.46-1.974,14.141c1.238,3.124,3.752,6.194,7.302,6.596c-1.156-1.484-3.148-2.988-2.574-5.104
		c0.315-2.104,1.188-4.239,2.877-5.604c1.688-1.271,3.992-1.256,5.949-0.688c7.172,1.333,14.17,3.347,21.26,5.023
		c4.805,1.021,9.416,2.812,14.252,3.704c0.084,5.415,0.021,10.829,0.041,16.249c-2.598,2.297-5.199,4.592-7.766,6.928
		c2.59,1.998,5.131,4.049,7.752,6.002c0.039,7.707-0.016,15.427,0.041,23.138c-4.552,3.407-10.537,4.25-16.06,3.479
		c-6.098-0.363-11.43-4.031-15.477-8.371c1.658-1.158,3.551-1.898,5.342-2.838c5.033-2.479,10.004-5.073,15.078-7.465
		c0.16-12.134,0.021-24.272,0.068-36.408c-8.554,3.644-17.031,7.453-25.613,11.019c1.963-4.654,5.098-8.912,9.311-11.761
		c1.267-1.149,2.539-2.356,4.271-2.755c-1.729,0.121-3.521,0.063-5.095,0.868c-12.096,4.893-22.401,15.562-24.68,28.669
		c-0.861,6.653-0.246,13.564,2.078,19.87c2.98,7.403,8.229,13.979,15.051,18.178c3.271,1.987,6.775,3.59,10.438,4.694
		c8.77,1.459,18.174,0.198,25.846-4.461c5.062-3.53,9.767-8.106,11.886-14.046c2.274-5.04,3.188-10.544,3.309-16.042
		c-1.062,1.382-1.68,3.023-2.574,4.502c-2.914,4.892-6.686,9.323-11.279,12.71c0.062-7.686-0.063-15.368,0.068-23.052
		c2.604-1.878,5.041-3.975,7.658-5.84c-2.412-2.5-5.15-4.659-7.711-6.994c-0.05-5.389,0.059-10.779-0.06-16.165
		c5.039-0.325,10.142-2.586,12.851-7.01c2.818-4.546,2.805-10.734,0.082-15.312c-2.146-2.832-5.515-4.655-8.99-5.178
		C725.669,529.472,724.042,528.833,722.465,528.787L722.465,528.787z M694.802,565.718c0.064,11.651,0,23.307,0.025,34.962
		c-1.987,0.832-3.951,1.71-5.934,2.547c-2.877-4.042-5.113-8.59-6.271-13.425c-1.271-6.334-0.938-13.2,2.013-19.044
		C688.056,569.125,691.422,567.418,694.802,565.718L694.802,565.718z"/>
	<path id="path14" fill="#FFFFFF" d="M554.759,548.029c5.689-4.241,11.271-8.637,16.965-12.861
		c0.026,14.001-0.006,28.011,0.02,42.018c4.82-3.979,9.678-7.904,14.447-11.938c3.828,3.974,7.399,8.19,11.346,12.035
		c1.664-1.195,3.373-2.33,5.118-3.396c-0.312,2.22-2.97,2.979-4.349,4.524c0.02,7.656,0,15.31,0.008,22.963
		c0.108,5.726-0.717,11.408-0.89,17.123c-0.26,6.203-2.666,12.545-7.5,16.612c-3.936,3.517-9.312,4.78-14.438,5.205
		c-0.089,0.121-0.276,0.369-0.369,0.495l0.141-0.451c-1.771,0-3.529-0.062-5.296-0.197c2.215-1.146,4.725-1.879,6.469-3.771
		c2.007-2.237,4.343-4.368,5.324-7.294c1.612-4.461,1.663-9.271,1.822-13.951c-0.045-10.493,0.051-20.991-0.05-31.479
		c-2.335-3.047-5.133-5.731-7.611-8.676c-1.354,1.448-2.979,2.665-4.142,4.273c-0.094,10.829-0.012,21.664-0.039,32.49
		c1.404,1.396,2.803,2.811,4.219,4.194c1.135-1.141,2.271-2.282,3.405-3.433c0.253,0.248,0.754,0.744,1.007,0.992
		c-5.509,4.308-10.959,8.681-16.468,12.979c-3.487-3.096-6.896-6.275-10.323-9.436c-1.149,0.854-2.301,1.729-3.458,2.582
		c-0.248-0.26-0.73-0.775-0.98-1.034c2.646-1.702,5.238-3.479,7.854-5.216c-0.005-19.257-0.005-38.507,0-57.764
		c-0.054-1.472,0.019-3.058-0.759-4.366c-0.516-1.003-1.67-1.322-2.535-1.931C553.505,548.696,554.419,548.427,554.759,548.029
		L554.759,548.029z"/>
	<path id="path18" fill="#FFFFFF" d="M740.276,550.885c3.565-3.129,6.93-6.488,10.576-9.529c3.082,3.255,6.334,6.351,9.467,9.557
		c-3.762,3.521-7.545,7.015-11.356,10.479C746.083,557.869,743.118,554.432,740.276,550.885L740.276,550.885z"/>
	<path id="path24" fill="#FFFFFF" d="M941.34,561.146c0.396,1.014,0.522,2.146,0.026,3.154c-1.217,2.779-4.533,3.85-7.354,3.8
		c-2.951-0.267-5.259-2.388-7.242-4.395c-3.338,2.236-6.691,4.456-10.025,6.692c-3.844,2.589-8.088,4.5-12.352,6.279
		c-0.021,5.476,0.004,10.938-0.019,16.414c3.111,2.595,6.312,5.07,9.363,7.737c-2.34,2.479-4.648,4.992-6.857,7.586
		c-2.27,2.731-4.407,5.893-4.545,9.561c-0.131,4.169,1.654,8.683,5.349,10.893c1.631,0.958,3.608,1.812,5.51,1.074
		c-2.359-0.844-5.26-2.551-5.059-5.426c0.653-2.725,3.889-4.542,6.565-3.762c2.783,0.795,5.08,2.778,6.859,5.014
		c7.146-5.148,14.68-9.752,22.498-13.812c-0.062-6.94,0.1-13.906-0.066-20.848c-3.455-2.424-6.748-5.064-10.162-7.533
		c3.611-4.576,7.248-9.418,8.758-15.146C943.155,566.013,943.345,562.962,941.34,561.146L941.34,561.146z M918.315,571.557
		c2.317,3.332,5.391,6.572,9.6,7.256c4.191,0.986,8.254-1.286,11.002-4.311c-3.762,6.955-9.598,12.541-15.629,17.543
		c-1.631-1.729-3.385-3.344-4.998-5.082C918.356,581.831,918.3,576.689,918.315,571.557L918.315,571.557z M924.224,592.32
		c1.807,1.521,3.592,3.068,5.396,4.6c0.826,0.496,0.42,1.531,0.537,2.313c-0.049,5.965,0.074,11.95-0.068,17.915
		c-1.35-3.052-3.371-5.891-6.225-7.697c-4.135-2.703-9.824-2.856-14.031-0.229c-1.93,1.063-3.471,2.661-4.93,4.278
		c2.088-4.071,5.461-7.293,8.633-10.521C917.165,599.486,920.788,596,924.224,592.32z"/>
	<path id="path26" fill="#FFFFFF" d="M636.11,565.278c-4.76,2.754-9.357,5.759-14.021,8.662c-3.946,2.06-7.963,4.003-11.938,6.003
		c0.017,11.154-0.021,22.309,0.023,33.46c-1.692,1.318-3.677,2.267-5.221,3.774c0.3,0.176,0.892,0.529,1.188,0.716
		c1.333-1.151,2.647-2.325,4.115-3.306c4.932,4.098,9.578,8.531,14.5,12.65c0.239-0.126,0.729-0.383,0.979-0.51
		c8.328-6.455,16.742-12.812,25.076-19.266l-1.033-0.908c-4.639,3.613-9.146,7.417-13.742,11.084
		c-3.795-3.414-7.467-6.965-11.25-10.396c-1.289-0.938-0.564-2.729-0.662-4.062c7.771-5.689,15.549-11.382,23.203-17.229
		C643.511,579.108,639.812,572.196,636.11,565.278z M624.103,573.499c3.934,6.461,7.887,12.9,11.771,19.393
		c-3.953,2.779-7.875,5.596-11.787,8.427C624.049,592.042,624.03,582.769,624.103,573.499L624.103,573.499z"/>
	<path id="path34" fill="#FFFFFF" d="M885.587,563.692c-3.504,2.131-7.021,4.26-10.479,6.458
		c-4.785,3.327-10.275,5.396-15.354,8.207c0.058,11.148,0,22.305,0.025,33.448c-1.752,1.155-3.482,2.335-5.232,3.47
		c0.229,0.275,0.688,0.842,0.908,1.116c1.512-1.118,2.873-2.446,4.504-3.416c4.543,4.226,9.299,8.222,13.908,12.379
		c0.439,0.706,1.08-0.017,1.527-0.302c8.307-6.401,16.635-12.766,24.95-19.146c-0.979-1.706-2.081-0.053-3.061,0.647
		c-3.905,3.179-7.801,6.354-11.717,9.515c-4.006-3.647-7.873-7.438-11.953-11.002c-0.061-1.146-0.069-2.297-0.014-3.438
		c7.793-5.646,15.496-11.426,23.229-17.157C893.112,577.526,889.376,570.595,885.587,563.692L885.587,563.692z M873.563,572.106
		c4.215,6.229,7.916,12.812,11.871,19.224c-4.015,2.748-7.91,5.656-11.896,8.43C873.603,590.542,873.542,581.321,873.563,572.106
		L873.563,572.106z"/>
	<path id="path38" fill="#FFFFFF" d="M768.538,576.938c4.688-4.104,9.275-8.312,13.99-12.382c3.381,3.729,6.879,7.354,10.201,11.137
		c4.979-3.596,9.76-7.463,14.688-11.137c3.451,3.702,6.844,7.464,10.328,11.137c4.885-3.7,9.709-7.479,14.629-11.131
		c3.359,3.745,6.824,7.396,10.227,11.108c2.081-1.326,3.992-2.922,6.109-4.19c0.16,1.231-0.963,1.795-1.745,2.478
		c-1.134,0.916-2.232,1.873-3.369,2.782c-0.097,10.257,0.021,20.513-0.062,30.771c1.955,2.024,3.947,4.021,5.98,5.971
		c1.069-1.118,2.176-2.214,3.221-3.36c0.313,0.198,0.949,0.592,1.264,0.789c-5.141,5.062-10.438,9.971-15.715,14.892
		c-3.719-4.395-7.617-8.642-11.246-13.104c0.879-0.81,1.738-1.65,2.588-2.5c0.013-8.846,0-17.69,0-26.532
		c-2.811-3.135-5.604-6.276-8.504-9.33c-0.838,0.854-1.676,1.701-2.502,2.562c-0.01,11.06,0.045,22.121-0.025,33.181
		c1.396,1.563,2.966,2.963,4.381,4.521c-3.811,3.378-7.479,6.913-11.264,10.32c-3.532-3.721-7.018-7.488-10.436-11.31
		c0.975-1.2,2.93-2.069,2.621-3.899c-0.045-8.625,0.043-17.256-0.045-25.877c-2.357-3.279-5-6.461-7.732-9.457
		c-0.799,0.852-1.604,1.684-2.424,2.516c0.021,10.713-0.062,21.433,0.039,32.145c1.156,1.977,2.881,3.586,4.315,5.365
		c-3.692,3.885-7.516,7.656-11.36,11.385c-3.683-4.384-7.492-8.647-11.197-13.01c1.156-0.896,2.324-1.783,3.486-2.684
		c-0.033-9.051-0.066-18.104,0.016-27.153c-2.168-2.688-4.549-5.2-6.828-7.793c-1.621,1.2-3.047,2.709-4.896,3.558
		C767.183,577.852,768.015,577.45,768.538,576.938z"/>
	<path id="path40" fill="#FFFFFF" d="M735.937,577.647c4.848-4.438,9.862-8.708,14.76-13.098c3.488,3.966,6.877,8.02,10.346,12.002
		c1.805-1.41,3.416-3.084,5.408-4.247c-0.146,0.633-0.316,1.29-0.908,1.646c-1.492,1.238-2.975,2.483-4.479,3.689
		c0.021,10.271-0.045,20.54,0.033,30.812c1.961,2.213,3.983,4.383,5.812,6.721c1.525-0.932,2.799-2.2,4.254-3.235
		c0.312,0.165,0.935,0.489,1.238,0.646c-4.842,4.539-9.865,8.894-14.91,13.19c-3.354-4.032-6.799-7.997-10.229-11.969
		c-1.494,1.354-2.736,2.997-4.373,4.175c-0.232-0.214-0.695-0.654-0.931-0.876c1.453-1.376,2.824-2.842,4.308-4.207
		c0.111-9.332,0.004-18.673,0.053-28.003c-0.088-1.3,0.33-2.836-0.683-3.873c-1.8-2.23-3.446-4.577-5.358-6.708
		C738.862,575.466,737.511,576.716,735.937,577.647L735.937,577.647z"/>
</g>
</svg>