<?xml version="1.0" encoding="utf-8"?>
<!-- Generator: Adobe Illustrator 16.0.3, SVG Export Plug-In . SVG Version: 6.00 Build 0)  -->
<!DOCTYPE svg PUBLIC "-//W3C//DTD SVG 1.1//EN" "http://www.w3.org/Graphics/SVG/1.1/DTD/svg11.dtd">
<svg version="1.1" id="Layer_1" xmlns="http://www.w3.org/2000/svg" xmlns:xlink="http://www.w3.org/1999/xlink" x="0px" y="0px"
	 width="960px" height="1116px" viewBox="0 0 960 1116" enable-background="new 0 0 960 1116" xml:space="preserve">
<rect opacity="0.2" fill="#99A8B1" enable-background="new    " width="960" height="1116"/>
<path fill="#5AABDF" d="M-433.491,928.477c0,7.836-5.371,14.189-12,14.189h-342.667c-6.627,0-12-6.354-12-14.189V866.76
	c0-7.838,5.373-14.188,12-14.188h342.667c6.629,0,12,6.352,12,14.188V928.477L-433.491,928.477z"/>
<path fill="#9ADBF9" d="M-135.079,297.334c0,6.627-5.372,12-12,12h-342.667c-6.627,0-12-5.373-12-12v-52.19c0-6.628,5.373-12,12-12
	h342.667c6.628,0,12,5.372,12,12V297.334L-135.079,297.334z"/>
<text transform="matrix(1 0 0 1 -447.6821 277.5713)" font-family="'PrestigeEliteStd-Bd'" font-size="24">search the NYTimes</text>
<rect y="459.025" width="960" height="196.06"/>
<g>
	<text transform="matrix(1 0 0 1 134.2871 542.1084)" fill="#FFFFFF" font-family="'Georgia'" font-size="48">Get with</text>
	<text transform="matrix(1 0 0 1 266.2412 627.6504)" fill="#FFFFFF" font-family="'Georgia-Bold'" font-size="24">The front page of the New York Times</text>
	<g>
		<path id="path6" fill="#FFFFFF" d="M403.301,477.806c-0.871,0.042-1.718,0.264-2.533,0.785c3.359,0.672,7.299,1.124,9.417,4.187
			c1.063,1.129,0.733,2.864-0.329,3.854c-2.011,2.396-5.462,3.148-8.414,2.382c-10.009-2.362-19.474-6.957-29.758-8.151
			c-5.508-0.728-10.892,1.923-14.691,5.756c-3.508,3.52-4.783,8.862-4.09,13.687c0.776,3.818,3.605,7.783,7.697,8.346
			c-2.424-2.634-2.883-7.205-0.371-9.942c1.421-1.762,3.945-2.005,6.045-1.68c7.97,1.481,15.736,3.881,23.685,5.495
			c4.45,1.211,8.848,2.656,13.397,3.482c0.082,5.438,0.082,10.868,0,16.305c-2.936,2.191-5.739,4.552-8.62,6.815
			c2.803,2.099,5.694,4.064,8.593,6.031c0.187,7.688-0.028,15.376,0.109,23.063c-4.741,3.664-11.096,4.259-16.868,3.581
			c-6.13-0.342-11.572-3.993-15.587-8.428c6.729-3.591,13.59-6.979,20.475-10.271c0.244-12.123,0.045-24.251,0.111-36.381
			c-8.604,3.607-17.119,7.408-25.695,11.071c2.479-6.34,7.521-11.477,13.535-14.527c-1.569,0.094-3.216-0.021-4.682,0.66
			c-11.258,4.445-20.536,14-24.028,25.654c-2.335,7.403-1.583,15.497,0.95,22.734c3.14,8.052,8.947,15.18,16.647,19.25
			c4.324,2.235,8.979,4.332,13.936,4.393c10.262,0.854,21.058-3.018,27.98-10.74c3.023-3.244,4.546-7.474,6.045-11.566
			c1.388-4.032,2.017-8.322,1.873-12.585c-3.323,6.587-7.74,12.774-13.771,17.143c0.039-7.662-0.015-15.32,0.014-22.981
			c2.622-2,5.255-3.996,7.793-6.101c-2.604-2.308-5.193-4.613-7.793-6.926c0.011-5.388-0.011-10.786,0-16.166
			c5.866-0.31,12.616-3.404,14.197-9.558c1.101-4.016,1.676-8.771-0.785-12.406c-2.266-2.578-5.2-4.817-8.648-5.439
			C407.23,478.465,405.218,477.714,403.301,477.806z M375.857,514.75c-0.022,11.677,0.068,23.354-0.042,35.031
			c-1.95,0.765-3.866,1.603-5.783,2.45c-3.537-5.116-5.734-11.14-6.748-17.253c-0.275-5.162,0.683-10.389,2.479-15.23
			C369.157,518.135,372.475,516.392,375.857,514.75z"/>
		<path id="path8" fill="#FFFFFF" d="M592.973,476.221c-0.942-0.028-1.869,0.156-2.739,0.785c1.983,0.457,4.08,0.652,5.936,1.583
			c1.652,0.793,2.746,2.436,3.318,4.131c0.309,1.834-1.035,3.525-2.646,4.214c-2.887,1.333-6.16,0.717-9.102-0.083
			c-7.051-2.158-13.916-4.951-21.109-6.637c-3.697-0.788-7.57-1.531-11.305-0.551c-4.049,1.14-8.158,3.079-10.547,6.692
			c-3.086,3.981-3.474,9.46-1.972,14.141c1.24,3.124,3.752,6.194,7.3,6.596c-1.156-1.486-3.148-2.988-2.574-5.107
			c0.317-2.104,1.19-4.239,2.877-5.604c1.686-1.271,3.992-1.256,5.949-0.688c7.172,1.333,14.17,3.347,21.26,5.025
			c4.805,1.02,9.416,2.812,14.252,3.704c0.084,5.415,0.02,10.829,0.041,16.249c-2.598,2.297-5.199,4.591-7.766,6.927
			c2.59,1.999,5.131,4.048,7.752,6.003c0.039,7.707-0.013,15.424,0.041,23.135c-4.55,3.408-10.537,4.25-16.056,3.482
			c-6.098-0.364-11.43-4.032-15.477-8.372c1.658-1.158,3.551-1.9,5.342-2.837c5.033-2.479,10.004-5.073,15.078-7.464
			c0.16-12.134,0.02-24.274,0.068-36.408c-8.55,3.642-17.031,7.453-25.613,11.017c1.963-4.654,5.098-8.912,9.311-11.76
			c1.263-1.15,2.539-2.357,4.269-2.754c-1.729,0.121-3.521,0.063-5.094,0.868c-12.093,4.891-22.402,15.561-24.677,28.669
			c-0.864,6.653-0.246,13.564,2.078,19.87c2.98,7.403,8.229,13.979,15.051,18.177c3.267,1.988,6.775,3.588,10.438,4.695
			c8.77,1.459,18.174,0.198,25.846-4.461c5.062-3.531,9.764-8.108,11.885-14.046c2.275-5.04,3.189-10.544,3.306-16.042
			c-1.06,1.382-1.679,3.025-2.574,4.502c-2.914,4.891-6.686,9.323-11.279,12.71c0.058-7.685-0.067-15.368,0.068-23.052
			c2.602-1.878,5.041-3.973,7.658-5.839c-2.412-2.5-5.15-4.66-7.711-6.995c-0.05-5.387,0.059-10.779-0.056-16.165
			c5.039-0.325,10.138-2.586,12.847-7.01c2.821-4.545,2.805-10.734,0.082-15.312c-2.142-2.832-5.511-4.655-8.99-5.178
			C596.176,476.906,594.549,476.269,592.973,476.221L592.973,476.221z M565.309,513.152c0.066,11.654,0,23.307,0.027,34.962
			c-1.988,0.832-3.951,1.71-5.934,2.547c-2.877-4.042-5.113-8.59-6.267-13.425c-1.272-6.334-0.938-13.2,2.011-19.044
			C558.562,516.561,561.928,514.854,565.309,513.152L565.309,513.152z"/>
		<path id="path14" fill="#FFFFFF" d="M425.266,495.464c5.691-4.241,11.271-8.637,16.965-12.861
			c0.028,14.001-0.006,28.009,0.018,42.016c4.82-3.978,9.678-7.904,14.447-11.937c3.828,3.972,7.401,8.19,11.346,12.035
			c1.664-1.195,3.373-2.33,5.118-3.397c-0.313,2.22-2.97,2.979-4.347,4.526c0.018,7.657,0,15.308,0.006,22.963
			c0.11,5.724-0.715,11.408-0.888,17.124c-0.258,6.203-2.666,12.543-7.5,16.613c-3.934,3.515-9.311,4.78-14.438,5.205
			c-0.089,0.121-0.276,0.369-0.369,0.495l0.139-0.451c-1.769,0-3.531-0.066-5.294-0.198c2.213-1.146,4.721-1.879,6.467-3.771
			c2.005-2.237,4.341-4.368,5.326-7.294c1.612-4.461,1.663-9.271,1.822-13.951c-0.045-10.493,0.051-20.991-0.05-31.479
			c-2.335-3.046-5.133-5.733-7.611-8.676c-1.354,1.449-2.98,2.666-4.142,4.274c-0.094,10.829-0.011,21.664-0.039,32.491
			c1.404,1.399,2.803,2.81,4.219,4.196c1.135-1.14,2.271-2.284,3.405-3.432c0.253,0.248,0.754,0.744,1.007,0.992
			c-5.509,4.308-10.959,8.681-16.468,12.981c-3.487-3.096-6.892-6.278-10.323-9.436c-1.15,0.857-2.301,1.729-3.458,2.583
			c-0.248-0.259-0.731-0.776-0.981-1.035c2.646-1.702,5.238-3.479,7.854-5.216c-0.005-19.256-0.005-38.507,0-57.763
			c-0.054-1.471,0.017-3.057-0.759-4.367c-0.514-1.003-1.67-1.322-2.535-1.929C424.011,496.131,424.925,495.861,425.266,495.464
			L425.266,495.464z"/>
		<path id="path18" fill="#FFFFFF" d="M610.783,498.319c3.567-3.129,6.93-6.488,10.576-9.529c3.082,3.255,6.334,6.351,9.467,9.557
			c-3.762,3.521-7.545,7.013-11.357,10.478C616.59,505.303,613.625,501.866,610.783,498.319L610.783,498.319z"/>
		<path id="path24" fill="#FFFFFF" d="M811.848,508.58c0.396,1.014,0.523,2.146,0.027,3.154c-1.217,2.781-4.533,3.85-7.354,3.8
			c-2.951-0.265-5.255-2.388-7.242-4.393c-3.338,2.236-6.691,4.456-10.025,6.692c-3.844,2.589-8.088,4.5-12.352,6.279
			c-0.017,5.476,0.004,10.938-0.015,16.414c3.111,2.595,6.312,5.073,9.363,7.739c-2.34,2.479-4.648,4.993-6.857,7.586
			c-2.27,2.732-4.411,5.89-4.545,9.558c-0.131,4.169,1.654,8.683,5.345,10.893c1.631,0.958,3.612,1.812,5.51,1.074
			c-2.359-0.844-5.26-2.551-5.057-5.426c0.655-2.723,3.887-4.542,6.567-3.76c2.783,0.794,5.08,2.78,6.859,5.012
			c7.147-5.149,14.68-9.752,22.498-13.812c-0.06-6.944,0.1-13.907-0.066-20.848c-3.455-2.424-6.748-5.065-10.162-7.533
			c3.611-4.577,7.248-9.418,8.758-15.146C813.662,513.447,813.852,510.397,811.848,508.58L811.848,508.58z M788.822,518.991
			c2.319,3.332,5.391,6.573,9.6,7.256c4.191,0.986,8.254-1.286,11.002-4.31c-3.762,6.956-9.598,12.541-15.629,17.543
			c-1.631-1.73-3.385-3.342-4.998-5.082C788.863,529.265,788.807,524.124,788.822,518.991L788.822,518.991z M794.73,539.755
			c1.807,1.521,3.592,3.068,5.397,4.599c0.826,0.496,0.42,1.532,0.537,2.314c-0.049,5.965,0.074,11.95-0.068,17.915
			c-1.35-3.052-3.373-5.891-6.225-7.698c-4.135-2.703-9.824-2.859-14.031-0.232c-1.93,1.067-3.471,2.663-4.93,4.281
			c2.088-4.074,5.461-7.292,8.633-10.521C787.672,546.921,791.295,543.434,794.73,539.755z"/>
		<path id="path26" fill="#FFFFFF" d="M506.617,512.713c-4.76,2.754-9.357,5.759-14.019,8.662c-3.948,2.06-7.961,4.003-11.938,6.003
			c0.017,11.154-0.018,22.308,0.025,33.46c-1.694,1.318-3.675,2.266-5.219,3.774c0.299,0.176,0.889,0.532,1.187,0.716
			c1.333-1.151,2.651-2.325,4.116-3.305c4.931,4.097,9.581,8.533,14.5,12.653c0.242-0.126,0.729-0.383,0.978-0.51
			c8.328-6.455,16.742-12.814,25.076-19.264l-1.033-0.91c-4.639,3.614-9.148,7.417-13.742,11.084
			c-3.795-3.414-7.467-6.964-11.25-10.396c-1.289-0.94-0.567-2.729-0.662-4.062c7.771-5.689,15.547-11.382,23.203-17.227
			C514.018,526.543,510.318,519.631,506.617,512.713z M494.609,520.933c3.934,6.461,7.887,12.9,11.772,19.39
			c-3.953,2.78-7.875,5.596-11.787,8.427C494.557,539.479,494.537,530.203,494.609,520.933L494.609,520.933z"/>
		<path id="path34" fill="#FFFFFF" d="M756.094,511.127c-3.504,2.131-7.021,4.26-10.479,6.458
			c-4.785,3.327-10.275,5.397-15.353,8.207c0.054,11.148,0,22.304,0.025,33.448c-1.752,1.156-3.482,2.335-5.232,3.47
			c0.228,0.275,0.685,0.841,0.908,1.116c1.51-1.118,2.873-2.446,4.504-3.416c4.543,4.225,9.297,8.222,13.908,12.379
			c0.439,0.706,1.08-0.016,1.527-0.302c8.307-6.401,16.635-12.764,24.951-19.142c-0.976-1.707-2.082-0.053-3.058,0.647
			c-3.906,3.179-7.801,6.354-11.717,9.515c-4.006-3.65-7.873-7.438-11.953-11.002c-0.061-1.146-0.07-2.297-0.014-3.441
			c7.793-5.646,15.496-11.425,23.229-17.158C763.619,524.961,759.883,518.029,756.094,511.127L756.094,511.127z M744.07,519.541
			c4.215,6.229,7.916,12.811,11.871,19.223c-4.011,2.749-7.91,5.657-11.896,8.428C744.109,537.976,744.049,528.756,744.07,519.541
			L744.07,519.541z"/>
		<path id="path38" fill="#FFFFFF" d="M639.045,524.372c4.688-4.104,9.275-8.312,13.99-12.382
			c3.381,3.729,6.879,7.354,10.201,11.137c4.979-3.596,9.76-7.463,14.688-11.137c3.451,3.702,6.842,7.464,10.328,11.137
			c4.885-3.701,9.709-7.479,14.629-11.131c3.359,3.745,6.824,7.396,10.224,11.109c2.082-1.327,3.993-2.92,6.112-4.191
			c0.16,1.232-0.963,1.795-1.746,2.478c-1.133,0.915-2.235,1.873-3.37,2.782c-0.095,10.256,0.022,20.512-0.06,30.769
			c1.955,2.026,3.947,4.021,5.98,5.971c1.073-1.118,2.176-2.214,3.221-3.36c0.315,0.198,0.949,0.59,1.264,0.788
			c-5.141,5.062-10.438,9.97-15.715,14.889c-3.719-4.391-7.617-8.638-11.246-13.104c0.879-0.81,1.738-1.652,2.588-2.5
			c0.011-8.846,0-17.692,0-26.533c-2.811-3.134-5.606-6.278-8.504-9.33c-0.838,0.854-1.676,1.702-2.502,2.562
			c-0.01,11.06,0.045,22.121-0.027,33.181c1.396,1.563,2.964,2.962,4.38,4.521c-3.808,3.378-7.476,6.913-11.261,10.322
			c-3.534-3.719-7.018-7.49-10.436-11.308c0.975-1.201,2.93-2.071,2.621-3.9c-0.045-8.625,0.043-17.257-0.045-25.877
			c-2.357-3.282-5-6.461-7.732-9.457c-0.799,0.849-1.606,1.681-2.424,2.513c0.021,10.713-0.062,21.433,0.039,32.145
			c1.156,1.973,2.881,3.585,4.317,5.365c-3.694,3.884-7.514,7.656-11.362,11.385c-3.681-4.384-7.492-8.651-11.197-13.01
			c1.156-0.897,2.324-1.784,3.486-2.683c-0.033-9.05-0.066-18.105,0.016-27.154c-2.168-2.688-4.549-5.2-6.828-7.793
			c-1.621,1.2-3.047,2.709-4.896,3.558C637.689,525.286,638.521,524.884,639.045,524.372z"/>
		<path id="path40" fill="#FFFFFF" d="M606.443,525.082c4.848-4.439,9.864-8.708,14.76-13.098c3.488,3.966,6.877,8.02,10.346,12.002
			c1.803-1.41,3.416-3.084,5.408-4.247c-0.148,0.633-0.318,1.29-0.908,1.646c-1.494,1.239-2.975,2.484-4.479,3.69
			c0.022,10.271-0.045,20.54,0.033,30.812c1.961,2.214,3.987,4.384,5.815,6.72c1.525-0.931,2.799-2.202,4.254-3.237
			c0.308,0.165,0.931,0.489,1.238,0.648c-4.842,4.539-9.865,8.891-14.91,13.191c-3.354-4.032-6.799-7.997-10.229-11.969
			c-1.494,1.354-2.736,2.997-4.373,4.175c-0.232-0.214-0.695-0.655-0.927-0.876c1.453-1.376,2.824-2.842,4.304-4.207
			c0.114-9.332,0.004-18.673,0.053-28.003c-0.088-1.3,0.33-2.836-0.683-3.873c-1.797-2.23-3.446-4.577-5.358-6.708
			C609.369,522.901,608.018,524.151,606.443,525.082L606.443,525.082z"/>
	</g>
</g>
</svg>
